<?xml version="1.0" encoding="UTF-8"?><svg id="a" xmlns="http://www.w3.org/2000/svg" xmlns:xlink="http://www.w3.org/1999/xlink" viewBox="0 0 48 48"><defs><linearGradient id="b" x1="28.6" y1="40.71" x2="28.56" y2="40.83" gradientUnits="userSpaceOnUse"><stop offset="0" stop-color="#ef9190"/><stop offset=".13" stop-color="#eb7a79"/><stop offset=".39" stop-color="#e65554"/><stop offset=".63" stop-color="#e23a39"/><stop offset=".84" stop-color="#df2a28"/><stop offset="1" stop-color="#df2523"/></linearGradient><linearGradient id="c" x1="28.6" y1="40.71" x2="28.56" y2="40.84" xlink:href="#b"/></defs><rect width="48" height="48" rx="8" ry="8" fill="#fff"/><path d="M42.46,16.06c-1.43.32-9.33,2.06-10.57,2.34-1.01-4.05-4.72-6.04-8.6-5.24,1.97-3.83,5.23-6.52,9.39-7.9,4.93,1.61,8.16,5.83,9.77,10.81Z" fill="#ef9190"/><path d="M28.77,40.91c-.13-.09-.26-.18-.38-.28.13.09.25.19.38.28Z" fill="url(#b)"/><path d="M32.69,5.26c-4.16,1.38-7.42,4.07-9.39,7.9-5.14,1.21-6.26,5.81-6.14,11.43-3.51-.79-8.47-.78-11.99.06-.06-16.36,13.22-23.82,27.52-19.39Z" fill="#df2523"/><path d="M28.77,40.91c-.13-.09-.26-.18-.38-.28.13.09.25.19.38.28Z" fill="url(#c)"/><path d="M42.83,30.65c-1.22,5.48-4.65,10.35-10.04,12.17-4.09-1.15-7.24-4.29-9.29-7.91,5.14.62,7.81-2.37,8.84-7.42.23.07,9.98,3,10.49,3.15Z" fill="#bababa"/><path d="M32.79,42.83c-14.16,3.93-27.47-1.99-27.63-18.18,3.52-.85,8.48-.86,11.99-.06.08,5.25,1.17,9.73,6.34,10.34,2.05,3.62,5.2,6.75,9.29,7.91Z" fill="#1a1a1a"/></svg>